<mxfile host="app.diagrams.net" agent="Mozilla/5.0 (Windows NT 10.0; Win64; x64) AppleWebKit/537.36 (KHTML, like Gecko) Chrome/127.0.0.0 Safari/537.36 Edg/127.0.0.0" version="24.7.6">
  <diagram name="第 1 页" id="EW0pqv8WBgVQwhpAsJ-Y">
    <mxGraphModel dx="1426" dy="757" grid="1" gridSize="10" guides="1" tooltips="1" connect="1" arrows="1" fold="1" page="1" pageScale="1" pageWidth="827" pageHeight="1169" math="0" shadow="0">
      <root>
        <mxCell id="0" />
        <mxCell id="1" parent="0" />
        <mxCell id="tLt2KG-wKE5PONiP59la-1" value="java/base/share/native/launcher/main.c#main()" style="text;html=1;align=center;verticalAlign=middle;whiteSpace=wrap;rounded=0;" parent="1" vertex="1">
          <mxGeometry x="240" y="40" width="60" height="30" as="geometry" />
        </mxCell>
        <mxCell id="tLt2KG-wKE5PONiP59la-2" value="" style="edgeStyle=orthogonalEdgeStyle;rounded=0;orthogonalLoop=1;jettySize=auto;html=1;" parent="1" source="tLt2KG-wKE5PONiP59la-3" target="tLt2KG-wKE5PONiP59la-5" edge="1">
          <mxGeometry relative="1" as="geometry" />
        </mxCell>
        <mxCell id="tLt2KG-wKE5PONiP59la-3" value="" style="strokeWidth=2;html=1;shape=mxgraph.flowchart.start_1;whiteSpace=wrap;" parent="1" vertex="1">
          <mxGeometry x="40" y="70" width="100" height="60" as="geometry" />
        </mxCell>
        <mxCell id="tLt2KG-wKE5PONiP59la-4" value="" style="edgeStyle=orthogonalEdgeStyle;rounded=0;orthogonalLoop=1;jettySize=auto;html=1;" parent="1" source="tLt2KG-wKE5PONiP59la-5" target="tLt2KG-wKE5PONiP59la-6" edge="1">
          <mxGeometry relative="1" as="geometry" />
        </mxCell>
        <mxCell id="tLt2KG-wKE5PONiP59la-5" value="launcher" style="whiteSpace=wrap;html=1;strokeWidth=2;" parent="1" vertex="1">
          <mxGeometry x="210" y="70" width="120" height="60" as="geometry" />
        </mxCell>
        <mxCell id="tLt2KG-wKE5PONiP59la-10" value="" style="edgeStyle=orthogonalEdgeStyle;rounded=0;orthogonalLoop=1;jettySize=auto;html=1;" parent="1" source="tLt2KG-wKE5PONiP59la-6" target="tLt2KG-wKE5PONiP59la-9" edge="1">
          <mxGeometry relative="1" as="geometry" />
        </mxCell>
        <mxCell id="tLt2KG-wKE5PONiP59la-6" value="JLI_launch" style="whiteSpace=wrap;html=1;strokeWidth=2;" parent="1" vertex="1">
          <mxGeometry x="520" y="70" width="120" height="60" as="geometry" />
        </mxCell>
        <mxCell id="tLt2KG-wKE5PONiP59la-8" value="java/base/share/native/libjli/java.c#JLI_Launch()" style="text;html=1;align=center;verticalAlign=middle;whiteSpace=wrap;rounded=0;" parent="1" vertex="1">
          <mxGeometry x="550" y="40" width="60" height="30" as="geometry" />
        </mxCell>
        <mxCell id="Qh0ZPegz-4Dvq6i9Fg19-2" value="" style="edgeStyle=orthogonalEdgeStyle;rounded=0;orthogonalLoop=1;jettySize=auto;html=1;" edge="1" parent="1" source="tLt2KG-wKE5PONiP59la-9" target="Qh0ZPegz-4Dvq6i9Fg19-1">
          <mxGeometry relative="1" as="geometry">
            <Array as="points">
              <mxPoint x="890" y="210" />
            </Array>
          </mxGeometry>
        </mxCell>
        <mxCell id="tLt2KG-wKE5PONiP59la-9" value="InitLauncher" style="whiteSpace=wrap;html=1;strokeWidth=2;" parent="1" vertex="1">
          <mxGeometry x="827" y="70" width="120" height="60" as="geometry" />
        </mxCell>
        <mxCell id="tLt2KG-wKE5PONiP59la-11" value="java/base/unix/native/libjli/java_md_common.c#InitLauncher()" style="text;html=1;align=center;verticalAlign=middle;whiteSpace=wrap;rounded=0;" parent="1" vertex="1">
          <mxGeometry x="857" y="40" width="60" height="30" as="geometry" />
        </mxCell>
        <mxCell id="Qh0ZPegz-4Dvq6i9Fg19-1" value="DumpState" style="whiteSpace=wrap;html=1;strokeWidth=2;" vertex="1" parent="1">
          <mxGeometry x="520" y="180" width="120" height="60" as="geometry" />
        </mxCell>
      </root>
    </mxGraphModel>
  </diagram>
</mxfile>
